<svg width="48" height="48" viewBox="0 0 48 48" fill="none" xmlns="http://www.w3.org/2000/svg">
<path d="M10.5 22.5H40.5C40.8978 22.5 41.2794 22.658 41.5607 22.9393C41.842 23.2206 42 23.6022 42 24C42 24.3978 41.842 24.7794 41.5607 25.0607C41.2794 25.342 40.8978 25.5 40.5 25.5H10.5C10.1022 25.5 9.72064 25.342 9.43934 25.0607C9.15804 24.7794 9 24.3978 9 24C9 23.6022 9.15804 23.2206 9.43934 22.9393C9.72064 22.658 10.1022 22.5 10.5 22.5Z" fill="#808080"/>
<path d="M11.1212 23.9999L23.5622 36.4379C23.8439 36.7196 24.0021 37.1016 24.0021 37.4999C24.0021 37.8983 23.8439 38.2803 23.5622 38.5619C23.2806 38.8436 22.8986 39.0018 22.5002 39.0018C22.1019 39.0018 21.7199 38.8436 21.4382 38.5619L7.93824 25.0619C7.79855 24.9226 7.68772 24.7571 7.6121 24.5748C7.53648 24.3926 7.49756 24.1972 7.49756 23.9999C7.49756 23.8026 7.53648 23.6073 7.6121 23.425C7.68772 23.2428 7.79855 23.0773 7.93824 22.9379L21.4382 9.43794C21.7199 9.15628 22.1019 8.99805 22.5002 8.99805C22.8986 8.99805 23.2806 9.15628 23.5622 9.43794C23.8439 9.7196 24.0021 10.1016 24.0021 10.4999C24.0021 10.8983 23.8439 11.2803 23.5622 11.5619L11.1212 23.9999Z" fill="#808080"/>
</svg>
